<svg width="24" height="24" viewBox="0 0 24 24" fill="none" xmlns="http://www.w3.org/2000/svg">
<path d="M20.416 4.28215C20.7793 3.98581 21.3156 4.00697 21.6543 4.34562C21.993 4.68428 22.0141 5.22059 21.7178 5.5839L21.6543 5.65422L10.7852 16.5224C10.598 16.7096 10.4189 16.8898 10.2559 17.0282C10.1274 17.1373 9.97567 17.2511 9.79102 17.3388L9.59474 17.4169C9.25663 17.5267 8.89558 17.5402 8.55177 17.4579L8.40528 17.4169C8.12873 17.3271 7.91545 17.1737 7.74415 17.0282C7.66264 16.959 7.57687 16.8796 7.48829 16.7939L7.21485 16.5224L2.34571 11.6542L2.28224 11.5839C1.98591 11.2206 2.00706 10.6843 2.34571 10.3456C2.68437 10.007 3.22068 9.98582 3.58399 10.2821L3.65431 10.3456L8.52247 15.2148L8.7754 15.4657C8.84245 15.5308 8.89539 15.579 8.94141 15.6181C8.96391 15.6372 8.9811 15.649 8.9922 15.6571C8.99762 15.6577 9.0024 15.6577 9.00782 15.6571C9.01892 15.649 9.03609 15.6372 9.0586 15.6181C9.15065 15.5399 9.26877 15.4235 9.47755 15.2148L20.3457 4.34562L20.416 4.28215Z" fill="var(------brand_standard, #0099FF)"/>
</svg>
